<?xml version="1.0" encoding="UTF-8" standalone="no"?>
<svg
   xmlns:dc="http://purl.org/dc/elements/1.1/"
   xmlns:cc="http://creativecommons.org/ns#"
   xmlns:rdf="http://www.w3.org/1999/02/22-rdf-syntax-ns#"
   xmlns:svg="http://www.w3.org/2000/svg"
   xmlns="http://www.w3.org/2000/svg"
   xmlns:sodipodi="http://sodipodi.sourceforge.net/DTD/sodipodi-0.dtd"
   xmlns:inkscape="http://www.inkscape.org/namespaces/inkscape"
   viewBox="0 0 36 36"
   version="1.1"
   id="svg10"
   sodipodi:docname="dootle.svg"
   inkscape:version="0.92.3 (2405546, 2018-03-11)">
  <metadata
     id="metadata16">
    <rdf:RDF>
      <cc:Work
         rdf:about="">
        <dc:format>image/svg+xml</dc:format>
        <dc:type
           rdf:resource="http://purl.org/dc/dcmitype/StillImage" />
        <dc:title></dc:title>
      </cc:Work>
    </rdf:RDF>
  </metadata>
  <defs
     id="defs14" />
  <sodipodi:namedview
     pagecolor="#ffffff"
     bordercolor="#666666"
     borderopacity="1"
     objecttolerance="10"
     gridtolerance="10"
     guidetolerance="10"
     inkscape:pageopacity="0"
     inkscape:pageshadow="2"
     inkscape:window-width="1920"
     inkscape:window-height="956"
     id="namedview12"
     showgrid="false"
     inkscape:zoom="8"
     inkscape:cx="-20.013624"
     inkscape:cy="15.951444"
     inkscape:window-x="0"
     inkscape:window-y="27"
     inkscape:window-maximized="1"
     inkscape:current-layer="svg10" />
  <path
     d="M 20.978736,4.0796574 C 15.537719,-1.7588991 8.4484125,-1.0003692 3.7298858,4.2572482 -0.98810708,9.5142717 -1.5487235,17.279671 3.8922979,23.118223 c 3.0328246,3.254406 7.5480701,4.177714 10.0811581,3.810205 2.533082,-0.367512 2.631561,-1.822574 3.859345,-2.866186 0.20112,-0.170942 0.387376,-0.362216 0.572038,-0.554085 1.105268,-1.148388 2.174474,-2.339747 3.203708,-3.569726 0.171962,-0.2055 0.343344,-0.412737 0.495867,-0.635829 0.931121,-1.361953 2.259725,-1.497016 2.548064,-4.273274 0.288339,-2.776257 -0.64092,-7.69526 -3.673742,-10.9496706 z"
     id="path2"
     inkscape:connector-curvature="0"
     style="fill:#ccd6dd;stroke-width:0.79716152"
     sodipodi:nodetypes="ssszaaaacs" />
  <ellipse
     cx="-5.7703924"
     cy="16.81498"
     id="circle4"
     style="fill:#292f33;stroke-width:0.79875141"
     transform="matrix(0.66792169,-0.74423156,0.68176229,0.73157377,0,0)"
     rx="3.9971099"
     ry="3.9904065" />
  <ellipse
     cx="5.4215112"
     cy="16.81498"
     id="circle6"
     style="fill:#292f33;stroke-width:0.79875141"
     transform="matrix(0.66792169,-0.74423156,0.68176229,0.73157377,0,0)"
     rx="3.9971099"
     ry="3.9904065" />
  <path
     d="m 17.294075,16.589926 c -0.468092,-0.207966 -1.113387,-0.02329 -1.593945,0.512153 -0.480558,0.535454 -0.637787,1.245018 -0.438272,1.752248 -0.241697,0.478774 -0.17767,1.090559 0.196673,1.492257 0.450515,0.483431 1.174432,0.476563 1.61708,-0.0167 0.349735,-0.389691 0.414333,-0.963898 0.204955,-1.426827 0.01654,-0.01727 0.0353,-0.03104 0.05189,-0.04948 0.01654,-0.01844 0.02877,-0.03921 0.04425,-0.05766 0.42776,0.219588 0.951578,0.138158 1.300782,-0.250941 0.442113,-0.492624 0.435291,-1.284783 -0.01523,-1.768215 -0.374341,-0.401703 -0.934931,-0.459005 -1.368161,-0.186926 z"
     id="path8"
     inkscape:connector-curvature="0"
     style="fill:#292f33;stroke-width:0.79716152" />
  <path
     inkscape:connector-curvature="0"
     style="fill:#fcab40;stroke-width:0.79716152"
     d="m 13.60504,34.061295 -2.038473,-2.22816 15.543195,-16.997567 c 2.549242,-2.786664 1.01924,-6.6861638 1.530001,-7.2429962 0.507715,-0.5584993 1.017715,-0.00162 1.017715,-0.00162 l 6.116194,6.6878362 c 0.509238,0.556829 0,1.113662 0,1.113662 -0.510002,0.558492 -4.404759,-0.756893 -6.626194,1.672166 z"
     id="path2-7" />
  <path
     inkscape:connector-curvature="0"
     style="fill:#ccd6dd;stroke-width:0.79716152"
     d="m 13.47926,34.761509 c 0.705156,-0.771063 0.705156,-2.020605 0,-2.792504 -0.704401,-0.770225 -1.847896,-0.770225 -2.553057,0 l 0.06635,0.07255 c -0.282825,-0.278418 -0.715069,-0.27592 -0.98798,0.02248 -0.2813024,0.306757 -0.2813024,0.806909 0,1.113664 l 2.370089,2.591605 c 0.282063,0.307594 0.737938,0.307594 1.01924,0 0.270628,-0.296753 0.274436,-0.76606 0.02438,-1.075319 z"
     id="path4" />
  <path
     inkscape:connector-curvature="0"
     style="fill:#fcab40;stroke-width:0.79716152"
     d="m 19.465853,34.609795 c -1.155697,0 -2.240493,-0.491811 -3.057714,-1.384577 -0.816457,-0.891935 -1.266237,-2.079784 -1.266237,-3.343503 0,-1.262873 0.44978,-2.44989 1.266237,-3.343498 l 8.153908,-8.915988 c 0.816459,-0.892766 1.902782,-1.384573 3.058477,-1.384573 1.154934,0 2.241259,0.491807 3.057717,1.384573 1.685517,1.843884 1.685517,4.843948 0,6.686993 l -8.153909,8.915163 c -0.817221,0.892763 -1.902782,1.38541 -3.058479,1.38541 z m 8.154671,-15.220371 c -0.385739,0 -0.747084,0.164218 -1.019999,0.461806 l -8.153149,8.91599 c -0.272152,0.29759 -0.422331,0.693543 -0.422331,1.114495 0,0.421797 0.150179,0.816078 0.421568,1.113671 0.272916,0.297585 0.634264,0.462639 1.01924,0.462639 0.384981,0 0.747087,-0.164222 1.01924,-0.462639 L 28.639,22.080227 c 0.561841,-0.614349 0.56108,-1.614647 -7.63e-4,-2.228997 -0.27139,-0.297588 -0.632734,-0.461806 -1.017713,-0.461806 z"
     id="path6" />
  <path
     inkscape:connector-curvature="0"
     style="fill:#ccd6dd;fill-opacity:1;stroke-width:0.79716152"
     d="m 28.639763,26.538217 c 0.561078,0.615185 1.475876,0.615185 2.038478,0 0.562603,-0.616011 0.562603,-1.614645 0,-2.228995 L 23.563005,16.94915 c -0.563362,-0.615179 -1.47511,-0.615179 -2.037712,0 -0.563367,0.61602 -0.563367,1.614653 0,2.229834 z m -3.058478,3.343498 c 0.562602,0.615188 1.476638,0.615188 2.038477,0 0.562604,-0.616011 0.562604,-1.613812 0.0015,-2.228995 l -7.115966,-7.360068 c -0.563363,-0.615188 -1.475876,-0.615188 -2.039242,0 -0.5626,0.615182 -0.5626,1.613811 0,2.229831 z m -3.056953,3.343503 c 0.562603,0.615181 1.474351,0.615181 2.037715,0 0.562599,-0.615188 0.562599,-1.614648 0,-2.228997 l -7.114472,-7.359242 c -0.563365,-0.615186 -1.544114,-0.510461 -2.03924,0 -0.495126,0.510461 -0.5626,1.612985 0,2.228996 z"
     id="path8-5"
     sodipodi:nodetypes="cccccccccccccccccczcc" />
</svg>
